<!-- Generated by IcoMoon.io -->
<svg version="1.1" xmlns="http://www.w3.org/2000/svg" width="1024" height="1024" viewBox="0 0 1024 1024">
<g id="icomoon-ignore">
</g>
<path fill="#000" d="M863.008 416c-17.696 0-32 0-32 0h-63.328l-0.416 40.192c19.136 10.912 31.744 31.648 31.744 55.808l1.344 222.016h-607.36v-222.016c0-23.616 12.928-44.032 32-55.136v-40.864h-64c0 0-14.336 0-32 0-17.696 0-32-14.336-32-32v-32c0-17.696 14.304-32 32-32 17.664 0 32 0 32 0v64h64v-96c0-35.328 28.672-64 64-64h416c35.328 0 64 28.672 64 64l-0.992 96h63.008v-64c0 0 14.304 0 32 0 17.664 0 32 14.304 32 32v32c0 17.664-14.336 32-32 32zM384.992 704h224v-32h-224v32zM384.992 640h224v-32h-224v32zM384.992 576h224v-32h-224v32zM256.992 672c0 17.664 14.304 32 32 32h32c17.664 0 32-14.336 32-32 0-17.696-14.336-32-32-32h-32c-17.664 0-32 14.304-32 32zM704.992 320c0-17.696-14.304-32-32-32h-352c-17.696 0-32 14.304-32 32v160h416v-160zM704.992 640h-32c-17.696 0-32 14.304-32 32 0 17.664 14.304 32 32 32h32c17.664 0 32-14.336 32-32 0-17.696-14.336-32-32-32zM736.992 192h-480c-35.328 0-64 28.672-64 64v-160c0-17.696 14.304-32 32-32h544c17.664 0 32 14.304 32 32v160c0-35.328-28.64-64-64-64zM800.992 798.016c0 17.664-14.336 32-32 32h-544c-17.696 0-32-14.336-32-32 0-17.696 0-32 0-32h608c0 0 0 14.304 0 32zM352.992 928c0 17.664-14.336 32-32 32h-32c-17.696 0-32-14.336-32-32v-64h96v64zM736.992 928c0 17.664-14.336 32-32 32h-32c-17.696 0-32-14.336-32-32v-64h96v64z"></path>
</svg>
